<svg width="240" height="48" viewBox="0 0 240 48" fill="none" xmlns="http://www.w3.org/2000/svg">
<rect x="0.5" y="0.5" width="239" height="47" rx="7.5" stroke="white"/>
<path d="M33.9005 34.0105L28.5305 28.7105C29.9378 27.0907 30.6613 24.9878 30.5486 22.845C30.4358 20.7022 29.4956 18.6868 27.9261 17.2236C26.3566 15.7604 24.2804 14.9637 22.1349 15.0013C19.9895 15.0389 17.9424 15.9079 16.4252 17.4252C14.9079 18.9424 14.0389 20.9895 14.0013 23.1349C13.9637 25.2804 14.7604 27.3566 16.2236 28.9261C17.6868 30.4956 19.7022 31.4358 21.845 31.5486C23.9878 31.6613 26.0907 30.9378 27.7105 29.5305L33.0705 34.8405C33.1825 34.9286 33.323 34.9723 33.4653 34.9634C33.6075 34.9545 33.7414 34.8935 33.8416 34.7921C33.9417 34.6907 34.0011 34.556 34.0082 34.4137C34.0154 34.2714 33.9699 34.1314 33.8805 34.0205L33.9005 34.0105ZM22.3105 30.4205C21.362 30.4227 20.423 30.2322 19.5505 29.8605C17.8542 29.1377 16.5032 27.7868 15.7805 26.0905C15.4177 25.2173 15.2309 24.281 15.2309 23.3355C15.2309 22.3899 15.4177 21.4537 15.7805 20.5805C16.5032 18.8842 17.8542 17.5332 19.5505 16.8105C20.4251 16.4463 21.3631 16.2588 22.3105 16.2588C23.2579 16.2588 24.1959 16.4463 25.0705 16.8105C26.7668 17.5332 28.1177 18.8842 28.8405 20.5805C29.2033 21.4537 29.3901 22.3899 29.3901 23.3355C29.3901 24.281 29.2033 25.2173 28.8405 26.0905C28.1177 27.7868 26.7668 29.1377 25.0705 29.8605C24.1979 30.2322 23.2589 30.4227 22.3105 30.4205Z" fill="white"/>
<path d="M58.0938 30H56.7656V19.7578H50.8984V30H49.5703V18.5781H58.0938V30ZM68.4375 25.7109C68.4375 27.1068 68.0859 28.1979 67.3828 28.9844C66.6797 29.7656 65.7083 30.1562 64.4688 30.1562C63.7031 30.1562 63.0234 29.9766 62.4297 29.6172C61.8359 29.2578 61.3776 28.7422 61.0547 28.0703C60.7318 27.3984 60.5703 26.612 60.5703 25.7109C60.5703 24.3151 60.9193 23.2292 61.6172 22.4531C62.3151 21.6719 63.2839 21.2812 64.5234 21.2812C65.7214 21.2812 66.6719 21.6797 67.375 22.4766C68.0833 23.2734 68.4375 24.3516 68.4375 25.7109ZM61.9141 25.7109C61.9141 26.8047 62.1328 27.638 62.5703 28.2109C63.0078 28.7839 63.651 29.0703 64.5 29.0703C65.349 29.0703 65.9922 28.7865 66.4297 28.2188C66.8724 27.6458 67.0938 26.8099 67.0938 25.7109C67.0938 24.6224 66.8724 23.7969 66.4297 23.2344C65.9922 22.6667 65.3438 22.3828 64.4844 22.3828C63.6354 22.3828 62.9948 22.6615 62.5625 23.2188C62.1302 23.776 61.9141 24.6068 61.9141 25.7109ZM71.9375 21.4375V26.8672L71.8828 28.2891L71.8594 28.7344L76.4922 21.4375H78.1094V30H76.8984V24.7656L76.9219 23.7344L76.9609 22.7188L72.3359 30H70.7188V21.4375H71.9375ZM84.2812 30.1562C83.0417 30.1562 82.0807 29.776 81.3984 29.0156C80.7214 28.25 80.3828 27.1693 80.3828 25.7734C80.3828 24.3411 80.7266 23.2344 81.4141 22.4531C82.1068 21.6719 83.0911 21.2812 84.3672 21.2812C84.7786 21.2812 85.1901 21.3255 85.6016 21.4141C86.013 21.5026 86.3359 21.6068 86.5703 21.7266L86.1719 22.8281C85.8854 22.7135 85.5729 22.6198 85.2344 22.5469C84.8958 22.4688 84.5964 22.4297 84.3359 22.4297C82.5964 22.4297 81.7266 23.5391 81.7266 25.7578C81.7266 26.8099 81.9375 27.6172 82.3594 28.1797C82.7865 28.7422 83.4167 29.0234 84.25 29.0234C84.9635 29.0234 85.6953 28.8698 86.4453 28.5625V29.7109C85.8724 30.0078 85.151 30.1562 84.2812 30.1562ZM93.4766 21.4375H94.8984L91.2031 25.5703L95.2031 30H93.6875L89.7812 25.6641V30H88.4844V21.4375H89.7812V25.6016L93.4766 21.4375Z" fill="white"/>
</svg>
