<?xml version="1.0" encoding="UTF-8"?>
<svg id="_Слой_1" data-name="Слой 1" xmlns="http://www.w3.org/2000/svg" viewBox="0 0 207.58 65.65">
  <defs>
    <style>
      .cls-1 {
        fill: #fff;
        stroke-width: 0px;
      }
    </style>
  </defs>
  <path class="cls-1" d="M65.04,19.62c-.51-.18-.75.02-.97.38-.66,1.1-1.34,2.17-2.02,3.25-.08.13-.2.23-.42.47v-4.14h-.59v5.46c.41.18.66.06.88-.29.68-1.11,1.38-2.21,2.08-3.31.08-.13.19-.24.29-.36.04.01.08.03.13.04v3.99c.26-.03.44-.05.62-.07v-5.45Z"/>
  <path class="cls-1" d="M70.2,19.65c-.46-.2-.73-.08-.97.23-.48.63-.97,1.24-1.47,1.85-.1.12-.22.21-.46.45v-2.59c-.2-.01-.32-.03-.44-.02-.07,0-.13.05-.18.08v5.5c.24-.03.41-.05.63-.08-.03-1.09-.17-2.19.98-2.87.1.17.22.35.33.54.37.67.74,1.33,1.08,2.01.21.42.5.49.96.3-.64-1.2-1.28-2.38-1.92-3.56.49-.62.95-1.2,1.45-1.83Z"/>
  <path class="cls-1" d="M51.09,24.69c.1.5.37.57.77.46.52-.13.86-.46,1.08-.93.65-1.35,1.29-2.71,1.93-4.06.08-.17.14-.35.21-.53-.67-.1-.67-.11-.9.37-.21.44-.41.89-.61,1.34-.22.47-.44.95-.71,1.53-.47-1.05-.88-1.97-1.29-2.88-.21-.47-.22-.47-.9-.35.09.23.18.45.28.67.46.98.92,1.96,1.37,2.94.24.53.06,1.03-.48,1.25-.22.09-.47.13-.74.2Z"/>
  <path class="cls-1" d="M58.27,25.09v-4.91h1.54c-.03-.25-.04-.42-.06-.61h-3.69v.65h1.49v4.87h.73Z"/>
  <path class="cls-1" d="M74.17,50.71c-.22.29-.43.56-.63.83-1.99,2.61-4.14,5.07-6.76,7.07-1.83,1.4-3.82,2.51-6.11,2.97-2.07.41-4.12.34-6.08-.51-3.06-1.33-4.72-3.75-5.2-7-.68-4.59,1.9-9.91,8.06-11.6,1.97-.54,3.89-.37,5.8.26,2.19.72,4.19,1.81,6.18,2.94,1.37.77,2.72,1.57,4.07,2.36,1.16-.91,7.33-11.92,7.88-13.86-4.02,1.69-8.13,2.71-12.49,2.9-.05-.36-.09-.67-.12-.98-.03-.29-.03-.58-.05-.93.6-.07,1.15-.13,1.71-.19,4.26-.41,8.28-1.62,12.1-3.52.35-.18.5-.45.63-.77,1.65-3.92,3.35-7.81,4.94-11.75,1.85-4.58,3.49-9.24,4.99-13.94.09-.27.17-.66.37-.77.43-.22.93-.3,1.41-.39.12-.02.3.14.42.26,2.95,2.86,4.23,6.33,3.73,10.41-.43,3.52-1.98,6.56-4.09,9.34-2.66,3.49-5.98,6.23-9.77,8.41-.52.3-.86.66-1.12,1.2-2.07,4.41-4.31,8.72-6.9,12.85-.57.92-1.17,1.82-1.79,2.8.78.42,1.52.84,2.28,1.23,2.53,1.33,5.11,2.52,7.9,3.21,5.76,1.42,10.73-.01,14.96-4.15,1.39-1.36,2.63-2.85,3.69-4.49.57-.89,1.17-1.76,1.79-2.7.27.16.54.31.8.47.27.16.53.33.87.54-.6.94-1.15,1.84-1.74,2.71-.87,1.26-1.66,2.56-2.16,4.01-.19.55-.32,1.13-.43,1.71-.06.31-.06.64-.02.95.15,1.19,1.13,1.64,2.15.99,1.07-.68,1.93-1.59,2.79-2.51,2.49-2.67,4.67-5.58,6.81-8.52.16-.22.32-.43.53-.71.55.34,1.08.67,1.63,1.01-1.65,3.4-3.57,6.63-4.22,10.37-.03.18,0,.37,0,.73.5-.35.92-.56,1.24-.88,1.11-1.14,2.29-2.25,3.26-3.5,1.78-2.29,3.43-4.68,5.13-7.02.14-.2.27-.4.43-.63.59.22,1.16.43,1.79.66-.78,2.13-1.54,4.22-2.3,6.3.04.02.09.05.13.07.15-.18.31-.35.46-.53,1.37-1.65,2.74-3.3,4.44-4.61.63-.49,1.34-.95,2.08-1.23,1.83-.69,3.53.55,3.53,2.5,0,.53-.07,1.09-.24,1.59-.38,1.14-.83,2.26-1.27,3.37-.39.98-.81,1.95-1.19,2.94-.13.33-.15.7-.24,1.16,1.69.03,3.2-.31,4.75-.76-.03-.13-.03-.22-.07-.3-.73-1.33-.81-2.74-.38-4.15.98-3.22,3-5.48,6.25-6.54,1.18-.38,2.38-.32,3.55.1,1.82.66,2.65,2.24,2.13,4.11-.31,1.14-.96,2.09-1.73,2.97-1.35,1.56-2.99,2.77-4.77,3.79-.21.12-.42.24-.73.41.23.09.37.17.52.2,2.8.65,5.35-.01,7.73-1.53,2.12-1.35,3.84-3.13,5.41-5.07,1.58-1.95,2.94-4.06,4.19-6.23.11-.19.2-.39.28-.6,1.01-2.64,2.02-5.28,3.02-7.92.05-.13.08-.28.13-.46-14.83-2.27-29.11-.29-43.07,5.17-.24-.62-.46-1.2-.71-1.85,7.14-2.77,14.42-4.73,21.96-5.65,7.56-.92,15.1-.69,22.63.42,1.65-3.73,3.27-7.41,4.92-11.15.64.24,1.21.45,1.86.69-1.05,3.71-2.4,7.28-3.81,10.9,2.76.55,5.47,1.09,8.24,1.65,1.32-2.44,2.44-4.97,3.67-7.53.59.27,1.14.52,1.77.81-1.09,2.39-2.16,4.75-3.26,7.16.28.09.48.17.68.21,3.42.69,6.83,1.42,10.26,2.03,3.66.65,7.37.94,11.09.63,1.76-.15,3.5-.51,5.24-.77.19-.03.38-.06.62-.09.14.63.27,1.22.42,1.9-1.08.21-2.08.44-3.09.6-4.66.74-9.31.49-13.95-.22-3.79-.58-7.54-1.38-11.28-2.21-.24-.05-.48-.09-.75-.13-.08.16-.17.3-.23.45-1.42,3.43-2.74,6.89-3.73,10.47-.51,1.85-.97,3.71-.97,5.65,0,.22,0,.44.02.66.1,1.21.88,1.97,2.1,2.04,1.04.06,1.98-.27,2.87-.72-.1-.74-.28-1.44-.28-2.14-.02-3.45,1.32-6.2,4.33-8.02.89-.54,1.89-.83,2.95-.84,1.62-.02,2.75,1.06,2.8,2.68.04,1.18-.37,2.22-.95,3.21-.89,1.53-2.12,2.77-3.46,3.89-.6.5-1.24.96-1.87,1.44-.13.1-.24.21-.44.37.75.34,1.45.33,2.15.31,1.74-.06,3.38-.58,4.98-1.23,2.87-1.16,5.48-2.75,7.98-4.54-.01-.1,0-.18-.03-.24-1.25-2.43-.08-5.27,2.55-6.13.78-.25,1.57-.37,2.4-.19,1.63.35,2.31,1.77,1.41,3.18-.49.78-1.18,1.44-1.79,2.14-.17.2-.39.35-.69.61.39.12.64.18.88.27,1.08.39,2.18.76,3.24,1.2.85.36,1.55.94,2.07,1.72,1.11,1.69.63,3.69-1.14,4.67-.98.54-2.04.72-3.13.63-2.25-.18-4.29-1-6.21-2.13-.02-.01-.02-.04-.07-.14.26-.49.54-1.03.85-1.62.29.14.53.26.76.38,1.21.62,2.44,1.19,3.79,1.4.7.11,1.42.12,2.12.06.73-.07,1.44-.34,1.62-1.16.17-.79-.35-1.3-.94-1.7-.99-.67-2.1-1.06-3.24-1.37-.64-.18-1.3-.28-1.93-.48-.4-.13-.68-.01-1.01.21-1.61,1.08-3.2,2.2-4.88,3.17-2.45,1.42-5.06,2.52-7.86,3.05-.58.11-1.17.18-1.75.21-1.46.07-2.85-.14-4.01-1.21-.42.17-.82.35-1.23.5-1.14.42-2.3.69-3.53.46-1.82-.34-3.11-1.71-3.33-3.55-.15-1.33-.03-2.65.22-3.96.22-1.18.51-2.35.71-3.57-.13.2-.27.4-.4.6-1.31,1.93-2.58,3.89-3.95,5.78-.73,1.01-1.62,1.91-2.48,2.81-.68.71-1.47,1.3-2.4,1.68-1.95.79-3.84-.25-4.24-2.31-.27-1.39,0-2.74.23-4.1.07-.41.16-.81.12-1.29-.16.2-.32.39-.48.59-1.77,2.19-3.74,4.18-6.16,5.66-2.17,1.33-4.5,2.09-7.07,1.92-1.43-.1-2.83-.36-4.1-1.07-.35-.19-.64-.17-.97-.05-1.56.54-3.17.9-4.82,1.01-.44.03-.89.02-1.32-.05-1-.18-1.63-.93-1.68-1.95-.05-.86.2-1.66.51-2.43.58-1.43,1.23-2.84,1.81-4.28.23-.56.36-1.17.51-1.76.05-.19.05-.39.02-.58-.06-.55-.42-.81-.93-.59-.49.21-.98.48-1.38.84-.96.87-1.92,1.77-2.79,2.73-2.16,2.37-4.02,4.97-5.84,7.59-.15.22-.3.44-.48.71-.59-.29-1.13-.56-1.75-.87.7-1.93,1.39-3.83,2.08-5.73-.04-.03-.08-.05-.13-.08-.16.19-.31.39-.47.58-1.09,1.24-2.14,2.51-3.28,3.69-.57.6-1.26,1.1-1.96,1.54-.7.45-1.51.66-2.3.17-.84-.52-1.02-1.37-.96-2.25.05-.68.22-1.35.35-2.03.05-.26.12-.52.08-.84-.17.19-.33.39-.51.57-1.12,1.14-2.22,2.3-3.36,3.41-.4.39-.89.71-1.38.97-2.22,1.17-4.64-.19-4.82-2.69-.03-.41,0-.83,0-1.36-.21.15-.36.24-.49.35-2.22,1.89-4.7,3.29-7.58,3.93-2.32.51-4.63.47-6.95.03-3.37-.63-6.47-1.99-9.48-3.56-.87-.45-1.72-.93-2.64-1.42ZM72.45,49.71c-1.46-.85-2.83-1.67-4.22-2.45-1.71-.96-3.45-1.87-5.3-2.55-1.84-.67-3.66-.79-5.54-.15-4.02,1.36-6.42,4.82-6.06,8.95.21,2.36,1.29,4.26,3.41,5.45,1.25.71,2.63.92,4.05.87,1.94-.07,3.69-.73,5.32-1.76,3.38-2.13,5.92-5.12,8.35-8.36ZM163.53,32.59c-.11.23-.19.37-.26.53-1.22,2.82-2.55,5.58-4.05,8.26-.1.17-.18.35-.24.53-.81,2.37-1.6,4.74-2.12,7.2-.26,1.2-.5,2.41-.4,3.65.1,1.15.84,1.58,1.84,1,.67-.39,1.29-.9,1.85-1.44,1.38-1.34,2.51-2.89,3.59-4.47,2.89-4.25,5.36-8.75,7.72-13.31.04-.08.06-.18.12-.37-2.7-.53-5.36-1.06-8.04-1.58ZM85.96,29.26s.09.04.13.07c.06-.03.13-.06.19-.1,2.44-1.64,4.63-3.57,6.49-5.85,1.75-2.15,3.17-4.49,3.9-7.2.69-2.57.67-5.1-.48-7.55-.36-.77-.78-1.52-1.47-2.2-2.6,7.79-5.46,15.39-8.75,22.83ZM137.11,52.69c1.08-.62,2.15-1.19,3.16-1.83,1.33-.85,2.53-1.88,3.44-3.18.37-.53.65-1.15.86-1.77.21-.63-.01-1.04-.57-1.36-.66-.37-1.38-.5-2.13-.38-2.58.43-5.26,3.23-5.57,5.83-.11.95,0,1.86.82,2.69ZM175.88,52.24c.57-.42,1.11-.79,1.62-1.19,1.4-1.09,2.71-2.28,3.61-3.83.3-.52.53-1.11.68-1.69.24-.96-.23-1.41-1.19-1.24-.86.16-1.64.49-2.33,1.03-1.35,1.06-2.12,2.48-2.46,4.14-.18.89-.24,1.79.08,2.78ZM193.82,47.2c1.23-1.04,2.34-1.97,3.15-3.34-1.17-.2-2.06.06-2.76.85-.6.67-.7,1.46-.39,2.49Z"/>
  <path class="cls-1" d="M32.67,19.09c.62.26,1.18.49,1.79.74-.24.77-.45,1.5-.69,2.22-1.94,5.99-4.13,11.88-6.82,17.57-1.15,2.45-2.36,4.87-3.88,7.11-.82,1.2-1.23,2.5-1.42,3.89-.09.63-.11,1.27-.13,1.91,0,.24.05.49.11.72.16.56.43.76,1.02.75.19,0,.4-.02.58-.08.89-.28,1.77-.57,2.68-.87,0-.14.01-.24-.02-.32-.56-1.38-.4-2.75.13-4.09,1.62-4.09,6.05-6.71,10.4-6.14.59.08,1.2.3,1.72.59.94.51,1.3,1.46,1.12,2.51-.13.72-.46,1.35-.87,1.93-1.03,1.44-2.39,2.55-3.87,3.48-1.23.77-2.52,1.43-3.78,2.13-.23.13-.47.25-.81.42.84.35,1.61.37,2.37.34,2.38-.1,4.48-1.04,6.44-2.31.62-.4,1.19-.86,1.85-1.34.39.46.78.92,1.2,1.41-.09.11-.15.22-.23.29-2.21,1.84-4.67,3.18-7.51,3.73-2.21.44-4.36.26-6.34-.92-.28-.17-.5-.1-.76-.02-.86.3-1.71.61-2.58.89-.44.14-.9.25-1.36.29-1.97.17-3.25-.92-3.41-2.9-.04-.44,0-.88,0-1.35-.35-.03-.46.23-.61.38-2.25,2.18-4.94,3.44-8.05,3.79-1.27.14-2.51-.03-3.67-.55-2.21-1-3.18-3.17-2.46-5.49.43-1.38,1.26-2.49,2.28-3.47,2.24-2.15,4.85-3.58,7.99-3.92,1.16-.13,2.31-.12,3.42.27,1.82.64,2.5,2.29,1.69,4.03-.59,1.26-1.62,2.06-2.83,2.81-.36-.51-.71-1-1.11-1.57.27-.2.52-.39.77-.57.54-.39,1.05-.82,1.35-1.43.36-.73.2-1.14-.58-1.42-1.01-.36-2.04-.24-3.06-.07-2.81.47-5.09,1.89-6.93,4.02-.44.51-.79,1.13-1.04,1.76-.57,1.47,0,2.69,1.45,3.3,1.08.45,2.22.45,3.34.24,2.59-.5,4.81-1.69,6.58-3.65.74-.82,1.4-1.71,2.08-2.58.15-.19.25-.42.32-.65,1.95-6.33,4.61-12.38,7.44-18.35,1.39-2.93,2.88-5.81,4.32-8.71.11-.22.23-.43.4-.74ZM27.91,52.25c2.43-1.01,4.71-2.15,6.72-3.74.73-.57,1.37-1.26,2-1.94.29-.32.48-.74.64-1.14.16-.41.02-.65-.4-.8-.32-.11-.66-.19-1-.22-1.94-.17-3.7.33-5.25,1.51-1.39,1.06-2.49,2.37-2.97,4.09-.21.75-.24,1.5.25,2.24Z"/>
  <path class="cls-1" d="M46.19,25.11v-5.57h3.28c.02.22.04.4.06.64h-2.61v1.7c.25.01.51.02.77.03.39.02.79,0,1.17.08.74.14,1.24.8,1.24,1.54,0,.71-.48,1.37-1.18,1.51-.89.18-1.8.11-2.73.06ZM46.91,22.58v1.91c.54,0,1.03.02,1.52,0,.65-.04.98-.39.97-.97,0-.57-.35-.9-1.01-.93-.46-.02-.93,0-1.48,0Z"/>
  <path class="cls-1" d="M65.04,19.62v5.45c-.18.02-.36.04-.62.07v-3.99s-.08-.03-.13-.04c-.1.12-.21.23-.29.36-.7,1.1-1.4,2.2-2.08,3.31-.21.35-.47.47-.88.29v-5.46h.59v4.14c.22-.25.34-.35.42-.47.68-1.08,1.36-2.16,2.02-3.25.22-.36.46-.56.97-.38Z"/>
  <path class="cls-1" d="M70.2,19.65c-.5.63-.96,1.21-1.45,1.83.64,1.18,1.27,2.36,1.92,3.56-.47.19-.75.12-.96-.3-.34-.68-.72-1.34-1.08-2.01-.1-.19-.22-.37-.33-.54-1.15.68-1.01,1.78-.98,2.87-.22.03-.4.05-.63.08v-5.5c.05-.02.12-.07.18-.08.12,0,.23.01.44.02v2.59c.24-.23.36-.33.46-.45.49-.61.99-1.22,1.47-1.85.24-.32.51-.43.97-.23Z"/>
  <path class="cls-1" d="M51.09,24.69c.27-.07.52-.11.74-.2.54-.22.72-.72.48-1.25-.45-.98-.92-1.96-1.37-2.94-.1-.22-.18-.44-.28-.67.68-.11.69-.12.9.35.42.91.82,1.83,1.29,2.88.27-.58.49-1.05.71-1.53.21-.45.4-.9.61-1.34.22-.47.23-.47.9-.37-.07.19-.13.37-.21.53-.64,1.36-1.28,2.71-1.93,4.06-.22.46-.55.79-1.08.93-.41.11-.67.04-.77-.46Z"/>
  <path class="cls-1" d="M58.27,25.09h-.73v-4.87h-1.49v-.65h3.69c.02.19.04.36.06.61h-1.54v4.91Z"/>
</svg>