<svg width="49" height="33" viewBox="0 0 49 33" fill="none" xmlns="http://www.w3.org/2000/svg">
<path d="M29.5798 7.03076H18.7798V26.4908H29.5798V7.03076Z" fill="#ECDFD9"/>
<path d="M19.4598 16.7607C19.4598 14.8907 19.8798 13.0407 20.6998 11.3507C21.5198 9.66074 22.6998 8.19074 24.1798 7.03074C22.6298 5.81074 20.8098 4.98074 18.8698 4.61074C16.9298 4.24074 14.9298 4.33074 13.0398 4.89074C11.1498 5.45074 9.40978 6.45074 7.98978 7.81074C6.55978 9.17074 5.47978 10.8607 4.83978 12.7207C4.19978 14.5907 4.00978 16.5807 4.28978 18.5307C4.56978 20.4807 5.31978 22.3407 6.46978 23.9507C7.61978 25.5607 9.12978 26.8707 10.8898 27.7707C12.6498 28.6707 14.5898 29.1407 16.5698 29.1407C19.3398 29.1407 22.0298 28.2107 24.1998 26.4907C22.7298 25.3307 21.5398 23.8507 20.7198 22.1707C19.8998 20.4807 19.4798 18.6407 19.4798 16.7607H19.4598Z" fill="#F4E8E2"/>
<path d="M42.9698 24.4307V24.0307H43.1298V23.9507H42.7098V24.0307H42.8698V24.4307H42.9698ZM43.7598 24.4307V23.9507H43.6398L43.4998 24.2907L43.3598 23.9507H43.2298V24.4307H43.3198V24.0707L43.4498 24.3807H43.5398L43.6698 24.0707V24.4307H43.7598Z" fill="white"/>
<path d="M44.1498 16.7608C44.1498 19.0808 43.5098 21.3508 42.2898 23.3208C41.0598 25.2908 39.3098 26.8708 37.2198 27.8908C35.1298 28.9108 32.8098 29.3108 30.4998 29.0708C28.1898 28.8208 25.9998 27.9308 24.1798 26.4908C25.6498 25.3308 26.8398 23.8508 27.6498 22.1708C28.4698 20.4808 28.8898 18.6408 28.8898 16.7608C28.8898 14.8808 28.4698 13.0408 27.6498 11.3508C26.8298 9.66076 25.6498 8.19076 24.1798 7.03076C25.9998 5.59076 28.1898 4.70076 30.4998 4.45076C32.8098 4.20076 35.1398 4.61076 37.2198 5.63076C39.3098 6.65076 41.0598 8.23076 42.2898 10.2008C43.5198 12.1708 44.1598 14.4408 44.1498 16.7608Z" fill="white"/>
</svg>
