<svg width="49" height="33" viewBox="0 0 49 33" fill="none" xmlns="http://www.w3.org/2000/svg">
<path d="M35.8898 7.61072C36.5898 8.53072 37.1798 9.53072 37.6698 10.5907L24.1598 20.6707L18.4898 17.0607V12.7507L24.1298 16.3307L35.8898 7.61072Z" fill="white"/>
<path d="M12.7298 16.7807C12.7298 16.5707 12.7298 16.4007 12.7598 16.1907L9.33978 16.0107C9.33978 16.2507 9.30978 16.5107 9.30978 16.7507C9.30978 20.8907 10.9798 24.6407 13.6698 27.3607L16.0998 24.9107C14.0198 22.8407 12.7398 19.9807 12.7398 16.7807H12.7298Z" fill="white"/>
<path d="M24.1298 5.25077C24.3398 5.25077 24.5098 5.25077 24.7198 5.28077L24.8998 1.82077C24.6598 1.82077 24.3998 1.79077 24.1698 1.79077C20.0798 1.79077 16.3598 3.48077 13.6698 6.19077L16.0998 8.64077C18.1498 6.54077 21.0098 5.24077 24.1398 5.24077L24.1298 5.25077Z" fill="white"/>
<path d="M24.1298 28.3008C23.9198 28.3008 23.7498 28.3008 23.5398 28.2708L23.3598 31.7308C23.5998 31.7308 23.8598 31.7608 24.0898 31.7608C28.1798 31.7608 31.8998 30.0708 34.5898 27.3608L32.1598 24.9108C30.1098 27.0408 27.2798 28.3108 24.1198 28.3108L24.1298 28.3008Z" fill="white"/>
<path d="M30.5698 7.26074L33.4598 5.10074C30.9198 3.03074 27.6698 1.76074 24.1298 1.76074V5.22074C26.5298 5.25074 28.7498 5.99074 30.5598 7.26074H30.5698Z" fill="white"/>
<path d="M38.9898 16.7807C38.9898 15.8607 38.8998 14.9807 38.7498 14.0907L35.5598 16.4807V16.7807C35.5598 20.1807 34.0998 23.2207 31.7898 25.3207L34.0998 27.8907C37.0798 25.1707 38.9798 21.1807 38.9798 16.7807H38.9898Z" fill="white"/>
<path d="M24.1298 28.3007C20.7698 28.3007 17.7598 26.8207 15.6798 24.4907L13.1398 26.8307C15.8598 29.8707 19.7798 31.7607 24.1298 31.7607V28.3007Z" fill="white"/>
<path d="M16.4998 8.23077L14.1898 5.66077C11.1798 8.41077 9.30978 12.3708 9.30978 16.7708H12.7298C12.7298 13.4008 14.1898 10.3308 16.4998 8.23077Z" fill="white"/>
</svg>
