<svg width="49" height="33" viewBox="0 0 49 33" fill="none" xmlns="http://www.w3.org/2000/svg">
<path d="M4.14978 11.3007H7.89978C8.23978 11.3007 9.25978 11.1907 9.71978 12.7807C10.0598 13.8007 10.5198 15.4007 11.1998 17.7807H11.4298C12.1098 15.2807 12.6798 13.5707 12.9098 12.7807C13.3598 11.1907 14.4998 11.3007 14.9598 11.3007H18.4898V22.2207H14.8498V15.7407H14.6198L12.6898 22.2207H9.95978L8.02978 15.7407H7.68978V22.2207H4.15978M19.9598 11.3007H23.5998V17.7807H23.9398L26.3298 12.4407C26.7798 11.4207 27.8098 11.3007 27.8098 11.3007H31.2198V22.2207H27.5798V15.7407H27.3498L24.9598 21.0807C24.5098 22.1007 23.3698 22.2207 23.3698 22.2207H19.9598M36.0998 18.9207V22.2207H32.6898V16.5307H43.8298C43.3798 17.8907 41.7798 18.9207 39.9598 18.9207" fill="white"/>
<path d="M44.0598 15.8508C44.5098 13.8008 43.1498 11.3008 40.1898 11.3008H32.4598C32.6898 13.6908 34.7298 15.8508 36.8898 15.8508" fill="white"/>
</svg>
